<?xml version="1.0" encoding="utf-8"?>
<!-- Generator: Adobe Illustrator 27.5.0, SVG Export Plug-In . SVG Version: 6.00 Build 0)  -->
<svg version="1.1" xmlns="http://www.w3.org/2000/svg" xmlns:xlink="http://www.w3.org/1999/xlink" x="0px" y="0px"
	 viewBox="0 0 500 500" style="enable-background:new 0 0 500 500;" xml:space="preserve">
<g id="Background_Simple">
	<g>
		<path style="fill:#92E3A9;" d="M478.525,245.357c6.125-53.854-12.081-107.931-50.306-146.358
			c-18.794-18.893-44.502-36.696-78.652-45.297c-95.776-24.121-157.851-2.024-188.881,56.664
			c-31.031,58.688-120.074,48.569-134.241,149.756s54.641,212.491,171.342,218.562c116.702,6.071,101.681-52.022,165.518-76.942
			C412.129,382.684,469.385,325.721,478.525,245.357z"/>
		<path style="opacity:0.7;fill:#FFFFFF;" d="M478.525,245.357c6.125-53.854-12.081-107.931-50.306-146.358
			c-18.794-18.893-44.502-36.696-78.652-45.297c-95.776-24.121-157.851-2.024-188.881,56.664
			c-31.031,58.688-120.074,48.569-134.241,149.756s54.641,212.491,171.342,218.562c116.702,6.071,101.681-52.022,165.518-76.942
			C412.129,382.684,469.385,325.721,478.525,245.357z"/>
	</g>
</g>
<g id="Trees">
	<g>
		<path style="fill:#92E3A9;" d="M43.132,306.626c0,0,46.002,4.551,69.318,33.069c0,0,24.633-33.036,68.877-32.359
			c12.839-15.475,20.562-35.347,20.57-57.025c0.017-49.383-40.002-89.429-89.385-89.446c-49.383-0.017-89.429,40.002-89.446,89.385
			c-0.007,21.407,7.512,41.057,20.053,56.455L43.132,306.626z"/>
		<path style="opacity:0.4;fill:#FFFFFF;" d="M43.132,306.626c0,0,46.002,4.551,69.318,33.069c0,0,24.633-33.036,68.877-32.359
			c12.839-15.475,20.562-35.347,20.57-57.025c0.017-49.383-40.002-89.429-89.385-89.446c-49.383-0.017-89.429,40.002-89.446,89.385
			c-0.007,21.407,7.512,41.057,20.053,56.455L43.132,306.626z"/>
		<path style="fill:#263238;" d="M68.999,274.32c22.98,7.277,37.25,28.633,40.973,34.799l-0.335,151.988h6.613l-0.996-133.318
			c5.01-7.586,19.346-26.516,41.485-33.281c0,0-26.294,6.237-41.649,27.19l-0.86-31.918c3.783-6.064,18.594-27.565,42.509-34.872
			c0,0-27.501,6.519-42.677,28.632l-0.867-32.167l0.061,0.429c0,0,15.529-27.953,43.482-36.494c0,0-28.779,6.83-43.701,30.196
			l-2.11-43.296l-0.654,62.059c-14.624-22.227-41.275-28.771-41.275-28.771c23.54,7.454,37.946,29.69,41.232,35.229l-0.215,31.989
			C95.339,280.795,68.999,274.32,68.999,274.32z"/>
		<path style="fill:#999999;" d="M68.999,274.32c22.98,7.277,37.25,28.633,40.973,34.799l-0.335,151.988h6.613l-0.996-133.318
			c5.01-7.586,19.346-26.516,41.485-33.281c0,0-26.294,6.237-41.649,27.19l-0.86-31.918c3.783-6.064,18.594-27.565,42.509-34.872
			c0,0-27.501,6.519-42.677,28.632l-0.867-32.167l0.061,0.429c0,0,15.529-27.953,43.482-36.494c0,0-28.779,6.83-43.701,30.196
			l-2.11-43.296l-0.654,62.059c-14.624-22.227-41.275-28.771-41.275-28.771c23.54,7.454,37.946,29.69,41.232,35.229l-0.215,31.989
			C95.339,280.795,68.999,274.32,68.999,274.32z"/>
	</g>
	<g>
		<path style="fill:#92E3A9;" d="M352.941,355.458c0,0,31.461,3.113,47.406,22.615c0,0,16.846-22.593,47.104-22.13
			c8.78-10.583,14.062-24.174,14.067-38.999c0.012-33.772-27.357-61.16-61.129-61.172c-33.772-0.012-61.16,27.357-61.172,61.129
			c-0.005,14.64,5.138,28.078,13.714,38.609L352.941,355.458z"/>
		<path style="opacity:0.4;fill:#FFFFFF;" d="M352.941,355.458c0,0,31.461,3.113,47.406,22.615c0,0,16.846-22.593,47.104-22.13
			c8.78-10.583,14.062-24.174,14.067-38.999c0.012-33.772-27.357-61.16-61.129-61.172c-33.772-0.012-61.16,27.357-61.172,61.129
			c-0.005,14.64,5.138,28.078,13.714,38.609L352.941,355.458z"/>
		<path style="fill:#263238;" d="M370.631,333.365c15.716,4.977,25.475,19.582,28.021,23.798l-0.229,103.943h4.523l-0.681-91.175
			c3.426-5.188,13.23-18.134,28.371-22.76c0,0-17.983,4.266-28.483,18.595l-0.588-21.829c2.587-4.147,12.716-18.851,29.071-23.849
			c0,0-18.808,4.458-29.186,19.581l-0.593-21.999l0.042,0.293c0,0,10.62-19.117,29.737-24.958c0,0-19.682,4.671-29.887,20.651
			l-1.443-29.609l-0.447,42.442c-10.001-15.201-28.228-19.676-28.228-19.676c16.099,5.098,25.951,20.305,28.198,24.093
			l-0.147,21.877C388.645,337.793,370.631,333.365,370.631,333.365z"/>
		<path style="fill:#999999;" d="M370.631,333.365c15.716,4.977,25.475,19.582,28.021,23.798l-0.229,103.943h4.523l-0.681-91.175
			c3.426-5.188,13.23-18.134,28.371-22.76c0,0-17.983,4.266-28.483,18.595l-0.588-21.829c2.587-4.147,12.716-18.851,29.071-23.849
			c0,0-18.808,4.458-29.186,19.581l-0.593-21.999l0.042,0.293c0,0,10.62-19.117,29.737-24.958c0,0-19.682,4.671-29.887,20.651
			l-1.443-29.609l-0.447,42.442c-10.001-15.201-28.228-19.676-28.228-19.676c16.099,5.098,25.951,20.305,28.198,24.093
			l-0.147,21.877C388.645,337.793,370.631,333.365,370.631,333.365z"/>
	</g>
</g>
<g id="Clouds">
	<g>
		<path style="fill:none;stroke:#B2B2B2;stroke-linecap:round;stroke-linejoin:round;stroke-miterlimit:10;" d="M382.849,35.535
			c-0.228-0.704-0.465-1.412-0.72-2.121c-9.413-26.175-53.202-27.98-53.203,4.189c0,6.196-14.87,0-20.446,8.054
			c-5.576,8.054,0.62,13.011-6.815,15.489s-8.054-3.717-17.348-3.098c-9.293,0.619-8.054,9.293-11.152,11.771
			c-3.098,2.478-3.098,1.239-9.913,1.859c-6.815,0.619-8.054,5.576-8.054,5.576h162.945c0,0,6.196-18.587-4.956-25.402
			c-11.152-6.815-11.152,2.478-19.827-1.239C386.195,47.542,384.853,41.713,382.849,35.535z"/>
		<path style="fill:none;stroke:#B2B2B2;stroke-linecap:round;stroke-linejoin:round;stroke-miterlimit:10;" d="M388.483,70.475
			c0,0,3.375-10.433-4.91-18.104c-8.285-7.671-16.877-3.376-19.332,0c-2.455,3.375-2.455,9.819-6.444,10.433
			c-3.989,0.614-3.069-6.751-11.661-4.91c-8.592,1.841-5.216,10.433-9.206,12.274c-3.989,1.841-3.989-4.91-9.512-2.762
			c-5.523,2.148-5.217,6.137-5.217,6.137"/>
		<path style="fill:none;stroke:#B2B2B2;stroke-linecap:round;stroke-linejoin:round;stroke-miterlimit:10;" d="M344.41,49.629
			c0,0-6.833-5.466-15.716-1.367c-8.883,4.1-4.783,12.641-8.883,14.691c-4.1,2.05-6.15-0.342-11.274,2.05
			c-5.125,2.392-4.783,5.808-4.783,5.808"/>
	</g>
	<g>
		<path style="fill:none;stroke:#B2B2B2;stroke-linecap:round;stroke-linejoin:round;stroke-miterlimit:10;" d="M143.109,74.661
			c-0.099-0.306-0.202-0.614-0.313-0.923c-4.095-11.388-23.146-12.173-23.146,1.823c0,2.695-6.469,0-8.895,3.504
			c-2.426,3.504,0.27,5.66-2.965,6.739c-3.235,1.078-3.504-1.617-7.547-1.348c-4.043,0.27-3.504,4.043-4.852,5.121
			c-1.348,1.078-1.348,0.539-4.313,0.809c-2.965,0.27-3.504,2.426-3.504,2.426h70.891c0,0,2.695-8.086-2.156-11.051
			c-4.852-2.965-4.852,1.078-8.626-0.539C144.564,79.885,143.981,77.349,143.109,74.661z"/>
		<path style="fill:none;stroke:#B2B2B2;stroke-linecap:round;stroke-linejoin:round;stroke-miterlimit:10;" d="M145.56,89.862
			c0,0,1.468-4.539-2.136-7.876c-3.604-3.338-7.342-1.469-8.41,0c-1.068,1.468-1.068,4.272-2.804,4.539
			c-1.735,0.267-1.335-2.937-5.073-2.136c-3.738,0.801-2.269,4.539-4.005,5.34c-1.735,0.801-1.735-2.136-4.138-1.201
			c-2.403,0.935-2.27,2.67-2.27,2.67"/>
		<path style="fill:none;stroke:#B2B2B2;stroke-linecap:round;stroke-linejoin:round;stroke-miterlimit:10;" d="M126.386,80.793
			c0,0-2.973-2.378-6.837-0.595c-3.865,1.784-2.081,5.5-3.865,6.391s-2.675-0.149-4.905,0.892c-2.23,1.041-2.081,2.527-2.081,2.527"
			/>
	</g>
</g>
<g id="Speech_Bubble">
	<g>
		<path style="fill:#FFFFFF;stroke:#263238;stroke-linecap:round;stroke-linejoin:round;stroke-miterlimit:10;" d="M161.553,173.038
			l-8.951-7.208c2.17-4.279,3.4-9.114,3.4-14.24c0-17.42-14.122-31.541-31.542-31.541c-17.42,0-31.541,14.122-31.541,31.541
			s14.122,31.542,31.541,31.542c9.905,0,18.739-4.569,24.521-11.71L161.553,173.038z"/>
		<path style="fill:#92E3A9;stroke:#263238;stroke-linecap:round;stroke-linejoin:round;stroke-miterlimit:10;" d="M124.194,146.092
			c-1.711-2.7-4.514-4.454-7.35-5.751c-4.856-2.222-9.836,1.726-11.077,6.412c-1.5,5.661,3.147,9.984,7.264,13.068
			c5.576,4.178,12.185,7.363,18.748,9.685c0,0,11.102-23.718,7.57-30.784c-1.609-3.22-5.126-4.691-8.489-3.293
			C126.158,137.384,125.718,142.013,124.194,146.092z"/>
	</g>
</g>
<g id="Character">
	<g>
		<g>
			<path style="fill:#FFFFFF;stroke:#263238;stroke-linecap:round;stroke-linejoin:round;stroke-miterlimit:10;" d="
				M335.211,291.945c0,0,5.739,51.387,6.521,57.125c0.783,5.739-1.043,11.477-4.434,20.346
				c-3.391,8.869-17.477,36.518-17.477,36.518l-8.869-111.381L335.211,291.945z"/>
			<polygon style="fill:#263238;stroke:#263238;stroke-linecap:round;stroke-linejoin:round;stroke-miterlimit:10;" points="
				315.858,316.344 336.55,305.467 335.211,291.945 315.866,301.644 			"/>
		</g>
		<path style="fill:#263238;stroke:#263238;stroke-linecap:round;stroke-linejoin:round;stroke-miterlimit:10;" d="M195.919,455.757
			l-0.874,4.722h128.384c-0.308-7.011-2.176-48.34-3.608-54.543c-1.565-6.782-44.083,0.522-75.384-2.087
			c-31.302-2.608-40.17-6.782-40.17-6.782s-10.434,36.258-11.999,41.735c-1.565,5.478,1.565,9.912,1.826,11.216
			C194.354,451.322,195.919,455.757,195.919,455.757z"/>
		<g>
			<path style="fill:#FFFFFF;stroke:#263238;stroke-linecap:round;stroke-linejoin:round;stroke-miterlimit:10;" d="
				M172.182,298.988c0,0-6.521,55.039-6.26,61.56c0.261,6.521,2.215,11.018,5.478,18.781c4.855,11.551,9.912,19.042,12.521,23.215
				c2.608,4.174,11.738,17.738,11.738,19.303c0,1.565-1.826,9.13-1.565,11.477c0.261,2.348,5.478,7.825,5.478,7.825
				s5.217-24.78,5.478-27.389c0.261-2.608,0.783-3.913,0.261-8.347c-0.522-4.434-11.216-44.605-11.216-46.691
				c0-2.087,7.502-42.715,7.502-42.715L172.182,298.988z"/>
			<polygon style="fill:#263238;stroke:#263238;stroke-linecap:round;stroke-linejoin:round;stroke-miterlimit:10;" points="
				170.277,316.675 198.631,329.586 200.188,322.472 170.784,305.029 			"/>
		</g>
		<g>
			<path style="fill:#FFFFFF;stroke:#263238;stroke-linecap:round;stroke-linejoin:round;stroke-miterlimit:10;" d="M186.176,143.65
				c0,0,1.056,13.096,2.112,18.376c1.056,5.281,5.703,7.182,5.492,9.505c-0.211,2.324-4.436,16.053-2.535,17.531
				c1.901,1.479,7.182,2.535,7.182,2.535s8.66,19.221,13.307,19.855c4.647,0.634,14.363-6.125,14.363-6.125
				s-3.38,7.393-7.815,12.462c-4.436,5.069-47.314,25.98-47.736,27.881c-0.422,1.901-16.686,43.3-16.686,43.3l46.046,30.627
				c0,0,5.492,4.225,5.492,20.911s-5.703,43.3-4.013,45.624c1.69,2.323,2.746,6.125,2.746,6.125s-2.957,1.267-2.112,4.013
				c0.845,2.746,5.281,6.126,5.914,6.759c0.634,0.634,19.01,12.04,38.442,13.729c19.432,1.69,55.551-1.901,62.099-4.224
				c6.548-2.323,14.785-2.535,14.785-7.181c0-4.647-0.845-6.97-1.267-14.574c-0.422-7.604-3.591-54.284-3.591-54.284l-2.535-34.852
				l31.05-14.574l-27.881-54.495c0,0-21.122-6.97-33.584-14.363c-12.462-7.393-24.29-25.135-26.191-30.627
				c-1.901-5.492-3.168-10.561-3.168-10.561s-4.224-13.518-3.802-22.389c0.423-8.871,1.267-6.759-1.056-3.168
				c-2.323,3.591,4.013-7.182-0.634-16.898c-4.647-9.716-30.416-16.264-44.145-11.406C192.724,128.02,184.908,134.99,186.176,143.65
				z"/>
			<path style="fill:#263238;stroke:#263238;stroke-linecap:round;stroke-linejoin:round;stroke-miterlimit:10;" d="
				M203.073,110.489l-5.914,2.746c0,0-13.518-9.082-19.432-0.634c-5.914,8.449,4.013,12.884,3.38,16.475s-10.984-1.901-13.729,7.815
				c-2.746,9.716,8.238,14.785,11.617,14.152c3.38-0.634,13.096-4.858,15.208-10.139c2.112-5.281,9.927-8.66,10.983-4.858
				c1.056,3.802-6.759,12.251-1.056,14.786c5.703,2.535,17.743,1.479,18.376,3.591c0.634,2.112,1.479,4.013,4.013,3.168
				c2.535-0.845,8.026-12.251,14.785-5.069c6.759,7.181,4.225,12.251,1.901,16.686c-2.323,4.436-6.337,8.871-6.337,8.871
				s5.914,1.479,9.927,2.323s9.927,0.634,10.561-0.845c0.634-1.479-1.479-17.531,0.211-22.178c1.69-4.647,9.716-18.376,5.914-30.627
				c-3.802-12.251-23.023-21.122-35.274-22.812C215.958,102.251,203.073,110.489,203.073,110.489z"/>
			<path style="fill:none;stroke:#263238;stroke-linecap:round;stroke-linejoin:round;stroke-miterlimit:10;" d="M193.357,165.406
				c0,0-1.056-6.759,6.97-4.436"/>
			<path style="fill:none;stroke:#263238;stroke-linecap:round;stroke-linejoin:round;stroke-miterlimit:10;" d="M204.763,192.02
				c0,0,8.026-2.535,8.026-11.828"/>
			
				<line style="fill:none;stroke:#263238;stroke-linecap:round;stroke-linejoin:round;stroke-miterlimit:10;" x1="210.466" y1="179.769" x2="214.479" y2="179.981"/>
			<path style="fill:#263238;" d="M203.358,169.218c0.64,1.375,0.558,2.769-0.182,3.113c-0.74,0.344-1.859-0.491-2.499-1.866
				c-0.64-1.375-0.558-2.769,0.182-3.113C201.599,167.008,202.718,167.843,203.358,169.218z"/>
			<path style="fill:none;stroke:#263238;stroke-linecap:round;stroke-linejoin:round;stroke-miterlimit:10;" d="M227.833,190.988
				c0.001-1.555-0.074-3.132-0.258-4.671"/>
			<path style="fill:none;stroke:#263238;stroke-linecap:round;stroke-linejoin:round;stroke-miterlimit:10;" d="M226.097,205.327
				c0,0,1.099-4.396,1.548-9.932"/>
		</g>
		<g>
			<path style="fill:#FFFFFF;stroke:#263238;stroke-linecap:round;stroke-linejoin:round;stroke-miterlimit:10;" d="
				M319.034,232.575c0,0-21.122-6.97-33.584-14.363c-6.39-3.791-12.609-10.301-17.413-16.488
				c-19.302-6.308-36.888,2.637-43.545,6.771c-1.408,2.609-3.627,6.341-6.211,9.294c-4.436,5.069-47.314,25.98-47.736,27.881
				c-0.422,1.901-16.686,43.3-16.686,43.3l46.046,30.627c0,0,5.492,4.224,5.492,20.911c0,16.686-5.703,43.3-4.013,45.624
				c1.69,2.323,2.746,6.125,2.746,6.125s-2.957,1.267-2.112,4.013c0.845,2.746,5.281,6.125,5.914,6.759
				c0.634,0.634,19.01,12.04,38.442,13.729c19.432,1.69,55.551-1.901,62.099-4.224c6.548-2.323,14.785-2.535,14.785-7.182
				c0-4.647-0.845-6.97-1.267-14.574c-0.422-7.604-3.591-54.284-3.591-54.284l-2.535-34.852l31.05-14.574L319.034,232.575z"/>
			<path style="fill:none;stroke:#263238;stroke-linecap:round;stroke-linejoin:round;stroke-miterlimit:10;" d="M194.921,275.098
				c-0.484-1.551-1.005-3.058-1.564-4.503"/>
			<path style="fill:none;stroke:#263238;stroke-linecap:round;stroke-linejoin:round;stroke-miterlimit:10;" d="M201.384,321.288
				c0,0-0.304-22.327-5.033-41.093"/>
			<path style="fill:none;stroke:#263238;stroke-linecap:round;stroke-linejoin:round;stroke-miterlimit:10;" d="M203.073,311.994
				c0,0,4.436-6.125,2.746-22.601"/>
			<path style="fill:none;stroke:#263238;stroke-linecap:round;stroke-linejoin:round;stroke-miterlimit:10;" d="M189.555,282.001
				c0,0,8.66,13.941,11.195,26.403"/>
			<polygon style="fill:#92E3A9;stroke:#263238;stroke-linecap:round;stroke-linejoin:round;stroke-miterlimit:10;" points="
				155.337,281.789 150.479,293.195 202.862,323.823 201.595,316.007 			"/>
			<polygon style="fill:#92E3A9;stroke:#263238;stroke-linecap:round;stroke-linejoin:round;stroke-miterlimit:10;" points="
				316.499,304.179 349.661,291.083 344.592,282.634 316.578,297.764 			"/>
			<polyline style="fill:none;stroke:#263238;stroke-linecap:round;stroke-linejoin:round;stroke-miterlimit:10;" points="
				313.066,267.477 316.499,304.179 317.894,275.378 			"/>
			<path style="fill:#92E3A9;stroke:#263238;stroke-linecap:round;stroke-linejoin:round;stroke-miterlimit:10;" d="
				M271.215,205.605c-1.113-1.29-2.178-2.592-3.179-3.881c-19.302-6.308-36.888,2.637-43.545,6.771
				c-0.647,1.199-1.472,2.639-2.418,4.128C231.11,209.21,252.438,202.382,271.215,205.605z"/>
			<path style="fill:none;stroke:#263238;stroke-linecap:round;stroke-linejoin:round;stroke-miterlimit:10;" d="M254.115,411.689
				c4.086,0.579,8.365,0.963,12.807,1.085"/>
			<path style="fill:none;stroke:#263238;stroke-linecap:round;stroke-linejoin:round;stroke-miterlimit:10;" d="M206.315,394.032
				c0,0,16.784,11.895,42.353,16.754"/>
			<path style="fill:none;stroke:#263238;stroke-linecap:round;stroke-linejoin:round;stroke-miterlimit:10;" d="M280.552,414.721
				c0,0,23.61-7.302,32.859-17.038"/>
			<path style="fill:none;stroke:#263238;stroke-linecap:round;stroke-linejoin:round;stroke-miterlimit:10;" d="M242.314,304.728
				c-0.982,1.365-1.979,2.703-2.99,4.01"/>
			<path style="fill:none;stroke:#263238;stroke-linecap:round;stroke-linejoin:round;stroke-miterlimit:10;" d="M275.317,240.262
				c0,0-12.34,34.117-30.42,60.766"/>
			<path style="fill:none;stroke:#263238;stroke-linecap:round;stroke-linejoin:round;stroke-miterlimit:10;" d="M232.166,310.995
				c-1.065,1.626-2.06,3.097-2.938,4.326"/>
			<path style="fill:none;stroke:#263238;stroke-linecap:round;stroke-linejoin:round;stroke-miterlimit:10;" d="M248.981,283.279
				c0,0-7.481,12.968-13.986,23.302"/>
		</g>
	</g>
</g>
<g id="Bag">
	<g>
		<path style="fill:#263238;stroke:#263238;stroke-linecap:round;stroke-linejoin:round;stroke-miterlimit:10;" d="M292.171,221.918
			l-2.348,47.213l-0.522,7.564c0,0,7.304-6.26,10.695-4.956c3.391,1.304,11.216,6.782,11.216,6.782l-9.912-51.908L292.171,221.918z"
			/>
		<polygon style="fill:#263238;stroke:#263238;stroke-linecap:round;stroke-linejoin:round;stroke-miterlimit:10;" points="
			205.57,345.559 192.267,375.295 205.048,367.209 		"/>
		<path style="fill:#92E3A9;stroke:#263238;stroke-linecap:round;stroke-linejoin:round;stroke-miterlimit:10;" d="M192.267,375.295
			c0,0,26.346-25.041,41.996-40.431c15.651-15.39,50.865-51.908,55.821-60.516c4.956-8.608,9.854-4.434,15.129-3.391
			c8.727,1.726,18.813,51.681,17.477,59.473c-1.234,7.199-42.518,56.865-47.474,59.212c-4.956,2.348-11.999,1.565-13.825,3.13
			c-1.826,1.565-5.478,4.695-10.173,4.956c-4.695,0.261-44.605-11.999-44.605-11.999s-3.417,2.652-5.23,0.283
			C199.571,383.642,192.789,377.382,192.267,375.295z"/>
		<path style="fill:none;stroke:#263238;stroke-linecap:round;stroke-linejoin:round;stroke-miterlimit:10;" d="M305.213,270.957
			c0,0-0.522,4.434-2.869,8.608c-2.348,4.174-32.084,41.475-45.387,55.039c-13.303,13.564-33.127,31.041-40.953,35.214
			c-7.825,4.173-17.216,5.217-17.998,5.217"/>
		
			<line style="fill:none;stroke:#263238;stroke-linecap:round;stroke-linejoin:round;stroke-miterlimit:10;" x1="237.132" y1="361.47" x2="259.304" y2="378.426"/>
		<path style="fill:none;stroke:#263238;stroke-linecap:round;stroke-linejoin:round;stroke-miterlimit:10;" d="M295.04,295.737
			c0,0,15.651,18.52,21.65,35.214"/>
		<path style="fill:#263238;stroke:#263238;stroke-linecap:round;stroke-linejoin:round;stroke-miterlimit:10;" d="M299.214,301.476
			c0,0-18.259,27.389-37.04,42.779c-18.781,15.39-22.694,19.824-22.694,19.824l-2.087,21.128l5.999-0.522l1.826-16.955
			c0,0,19.824-13.564,35.997-31.562c16.172-17.998,21.911-29.476,21.911-29.476L299.214,301.476z"/>
	</g>
</g>
<g id="Line">
	
		<line style="fill:none;stroke:#263238;stroke-linecap:round;stroke-linejoin:round;stroke-miterlimit:10;" x1="64.547" y1="461.107" x2="446.898" y2="461.107"/>
</g>
<g id="Arrow">
	<polygon style="fill:none;stroke:#263238;stroke-linecap:round;stroke-linejoin:round;stroke-miterlimit:10;" points="
		381.981,143.549 343.693,207.939 319.785,178.566 324.266,264.11 405.856,256.44 371.701,235.947 431.814,181.298 	"/>
</g>
</svg>
